<?xml version="1.0" encoding="utf-8"?>
<!-- Generator: Adobe Illustrator 25.0.1, SVG Export Plug-In . SVG Version: 6.00 Build 0)  -->
<svg version="1.1" id="Layer_1" focusable="false" xmlns="http://www.w3.org/2000/svg" xmlns:xlink="http://www.w3.org/1999/xlink"
	 x="0px" y="0px" viewBox="0 0 500 512" style="enable-background:new 0 0 500 512;" xml:space="preserve">
<style type="text/css">
	.st0{fill:#000A2B;}
</style>
<g>
	<path class="st0" d="M484.8,326.1c0-0.1,0.1-0.2,0.1-0.2c0.1-0.2,0.2-0.5,0.3-0.7c0-0.1,0.1-0.2,0.1-0.3c0.1-0.3,0.2-0.6,0.3-0.9
		c0,0,0-0.1,0-0.1c0.1-0.3,0.2-0.7,0.2-1c0-0.1,0-0.2,0-0.3c0-0.3,0-0.6,0.1-0.8c0-0.1,0-0.1,0-0.2V146.7c0,0,0-0.1,0-0.1
		c0-0.4,0-0.7-0.1-1.1c0,0,0,0,0,0c0-0.3-0.1-0.7-0.2-1c0-0.1,0-0.2-0.1-0.3c-0.1-0.3-0.2-0.5-0.3-0.8c0-0.1-0.1-0.2-0.1-0.3
		c-0.1-0.3-0.3-0.6-0.5-1L409.1,11.2c-0.1-0.3-0.3-0.5-0.5-0.7c-0.1-0.1-0.2-0.3-0.3-0.4c-0.1-0.1-0.1-0.2-0.2-0.3
		c-0.1-0.2-0.3-0.3-0.5-0.5c0,0-0.1-0.1-0.1-0.1c-0.2-0.2-0.3-0.3-0.5-0.4c0,0-0.1-0.1-0.1-0.1c-0.2-0.1-0.3-0.2-0.5-0.3
		c-0.1,0-0.1-0.1-0.2-0.1c-0.1-0.1-0.3-0.2-0.4-0.2c-0.1-0.1-0.2-0.1-0.3-0.2c-0.1,0-0.2-0.1-0.3-0.1c-0.4-0.2-0.9-0.4-1.3-0.5
		c-0.2-0.1-0.5-0.1-0.7-0.2c0,0-0.1,0-0.1,0c-0.1,0-0.2,0-0.3,0c-0.2,0-0.4-0.1-0.6-0.1c0,0-0.1,0-0.1,0c-1.4-0.1-2.8,0.2-4.1,0.8
		c-0.3,0.1-0.5,0.3-0.8,0.4l-75.7,43.7c0,0,0,0,0,0L94.1,182.7l-75.7,43.7c-2.7,1.6-4.4,4.5-4.4,7.7V409c0,0,0,0.1,0,0.1
		c0,0.4,0,0.7,0.1,1.1c0,0,0,0,0,0.1c0,0.3,0.1,0.6,0.2,1c0,0.1,0,0.2,0.1,0.3c0.1,0.3,0.2,0.5,0.3,0.8c0,0.1,0.1,0.2,0.1,0.3
		c0.1,0.3,0.3,0.6,0.5,0.9c0.2,0.3,0.4,0.7,0.7,1c0.1,0.1,0.2,0.3,0.4,0.4c0.1,0.2,0.3,0.3,0.4,0.5c0.2,0.2,0.3,0.3,0.5,0.5
		c0.1,0.1,0.2,0.2,0.4,0.3c0.2,0.2,0.4,0.3,0.6,0.4c0.1,0.1,0.2,0.1,0.3,0.2l0.1,0c0,0,0,0,0,0l151.3,87.4c0,0,0,0,0,0
		c0.2,0.1,0.4,0.2,0.6,0.3c0.2,0.1,0.3,0.2,0.5,0.2c0.1,0,0.2,0.1,0.3,0.1c1,0.4,2,0.6,3,0.6c0,0,0,0,0,0s0,0,0,0
		c1.1,0,2.3-0.2,3.4-0.7c0.4-0.1,0.7-0.3,1.1-0.5l302.8-174.8c0.3-0.2,0.6-0.4,0.9-0.6c0.1-0.1,0.2-0.1,0.2-0.2
		c0.2-0.2,0.4-0.3,0.6-0.5c0.1-0.1,0.1-0.1,0.2-0.2c0.2-0.2,0.4-0.5,0.6-0.7c0,0,0,0,0-0.1C484.4,326.7,484.6,326.4,484.8,326.1z
		 M334.6,218.8V64.4l63.6-36.7L465,143.5L334.6,218.8z M468.2,162.1v144.1l-124.8-72L468.2,162.1z M316.8,229l-139.3,80.4
		l-66.8-115.8l206.1-119V229z M183.2,326.7l142.5-82.3l133.7,77.2L183.2,481V326.7z M95.3,202.6l66.8,115.8L31.8,393.6V239.3
		L95.3,202.6z M40.6,409l124.8-72V481L40.6,409z"/>
</g>
</svg>
